<?xml version="1.0" encoding="utf-8"?>
<!-- Generator: Adobe Illustrator 21.0.2, SVG Export Plug-In . SVG Version: 6.00 Build 0)  -->
<svg version="1.2" baseProfile="tiny" id="Layer_1" xmlns="http://www.w3.org/2000/svg" xmlns:xlink="http://www.w3.org/1999/xlink"
	 x="0px" y="0px" viewBox="0 0 248 47.8" xml:space="preserve">
<g>
	<path fill="#333333" d="M72.2,22h9.4v5.8h-9.4v7.8h-6.9V12.2h18v5.9H72.2V22z"/>
</g>
<g>
	<path fill="#333333" d="M92.3,35.7h-6.9V12.2h6.9V35.7z"/>
</g>
<g>
	<path fill="#333333" d="M108.5,18.3v17.4h-7V18.3h-7v-6h20.9v6H108.5z"/>
</g>
<g>
	<path fill="#666666" d="M129.9,24.2h12.2v1.4h-12.2v10.1h-1.6V12.9h15.2v1.4h-13.6V24.2z"/>
</g>
<g>
	<path fill="#666666" d="M150,35.7h-1.6V12.9h1.6V35.7z"/>
</g>
<g>
	<path fill="#666666" d="M175.9,35.7h-1.5l-15.8-20.1v20.1H157V12.9h1.4l15.9,20.2V12.9h1.6V35.7z"/>
</g>
<g>
	<path fill="#666666" d="M190.6,12.9c7.1,0,11.9,4.5,11.9,11.2c0,6.9-4.8,11.5-11.9,11.5H183V12.9H190.6z M190.6,34.2
		c6.1,0,10.3-4.1,10.3-10.1c0-5.8-4.2-9.8-10.3-9.8h-6.1v19.9H190.6z"/>
</g>
<g>
	<path fill="#666666" d="M209.8,23.6h12.6V25h-12.6v9.2h13.9v1.4h-15.5V12.9h15.5v1.4h-13.9V23.6z"/>
</g>
<g>
	<path fill="#666666" d="M231.2,27v8.6h-1.6V12.9h8.1c5.1,0,8.6,2.6,8.6,7.1c0,3.9-2.7,6.4-6.9,7l7.7,8.7h-2l-7.6-8.6H231.2z
		 M237.7,25.6c4.1,0,7-2.1,7-5.6c0-3.5-2.9-5.6-7-5.6h-6.5v11.2H237.7z"/>
</g>
<path fill="#333333" d="M23.9,0c13.2,0,23.9,10.7,23.9,23.9S37.1,47.8,23.9,47.8S0,37.1,0,23.9S10.7,0,23.9,0z"/>
<g>
	<path fill="#FFFFFF" d="M15.7,23.8l2.2-3.4h16.6l2.8,4.8H20.6l-2,3.6L15.7,23.8z"/>
	<path fill="#FFFFFF" d="M11,15.6l2.2-3.4h16.6l2.8,4.8H15.9l-2,3.6L11,15.6z"/>
	<path fill="#FFFFFF" d="M20.4,31.8l2.2-3.3h7.3l2.8,4.8h-7.3l-2,3.5L20.4,31.8z"/>
</g>
</svg>
